<svg id="Layer_5" enable-background="new 0 0 58 57.98" height="512" viewBox="0 0 58 57.98" width="512" xmlns="http://www.w3.org/2000/svg"><path d="m30 45.899v-2.083c.847-.302 1.514-.969 1.816-1.816h2.083c-.399 1.956-1.943 3.5-3.899 3.899zm-5.899-3.899h2.083c.302.847.969 1.514 1.816 1.816v2.083c-1.956-.399-3.5-1.943-3.899-3.899zm-4.995-10.219c-.068-.085-.106-.193-.106-.301 0-.374.49-.607.78-.375l5.164 4.144-.011.064c-.625.448-1.173.996-1.621 1.621l-.063.01zm13.16-1.265c.786.246 1.548.573 2.261.988l-1.849 1.483zm-.45 9.484c-.302-.847-.969-1.514-1.816-1.816v-2.083c1.956.399 3.5 1.943 3.899 3.899zm-5.632 0h-2.083c.399-1.956 1.943-3.5 3.899-3.899v2.083c-.847.302-1.514.969-1.816 1.816zm2.816 2c-.552 0-1-.449-1-1s.448-1 1-1 1 .449 1 1-.448 1-1 1zm0-8c-.646 0-1.269.095-1.863.26l1.685-10.109c.029-.174.326-.174.355 0l1.685 10.109c-.593-.165-1.216-.26-1.862-.26zm-3.679-1.013-1.849-1.483c.713-.415 1.475-.743 2.261-.988zm9.366 3.947c-.448-.625-.996-1.173-1.621-1.621l-.011-.064 5.164-4.144c.291-.232.781.001.781.375 0 .108-.038.216-.105.3l-4.144 5.165zm21.093-4.934-.438-1.752c-.331-1.324-1.515-2.248-2.879-2.248h-3.044c-.418 0-.787-.266-.919-.662l-.167-.501c-.358-1.073-1.276-1.839-2.396-1.999l-4.106-.587c-.474-.067-.831-.48-.831-.958v-.478c0-.255.104-.505.283-.685l4.037-4.037c.126-.125.281-.213.451-.256l2.732-.683c.719-.18 1.34-.618 1.75-1.233l.994-1.491c.18-.27.48-.431.806-.431h2.481c.459 0 .918-.108 1.328-.313l2.138-1.068v19.382zm-33.26-21.26-2.711-.452c-.469-.079-.809-.48-.809-.955v-1.333h26.39l-1.205.723c-.671.403-1.164 1.068-1.352 1.825l-.43 1.718c-.108.432-.495.734-.94.734h-2.268c-.195 0-.392.019-.583.058l-3.864.773c-.892.178-1.667.77-2.073 1.583l-1.025 2.052c-.166.329-.498.534-.867.534h-1.093c-.219 0-.434-.075-.604-.212l-3.723-2.978c-.23-.185-.363-.46-.363-.756v-.387c0-1.457-1.043-2.688-2.48-2.927zm-5.52-2.74v1.333c0 1.457 1.043 2.688 2.48 2.928l2.711.452c.469.078.809.479.809.954v.387c0 .906.406 1.751 1.113 2.317l3.723 2.978c.524.42 1.184.651 1.854.651h1.093c1.132 0 2.149-.629 2.655-1.641l1.025-2.051c.133-.265.386-.458.677-.517l3.864-.773c.063-.012.127-.018.191-.018h2.268c1.364 0 2.548-.924 2.88-2.248l.431-1.72c.061-.246.222-.463.44-.594l4.063-2.438h8.723v2.382l-3.031 1.516c-.134.066-.284.102-.434.102h-2.481c-.996 0-1.919.494-2.47 1.321l-.994 1.491c-.134.201-.337.343-.57.402l-2.732.683c-.521.13-.998.4-1.38.781l-4.038 4.038c-.561.561-.87 1.306-.87 2.099v.478c0 1.468 1.096 2.731 2.548 2.938l4.106.587c.365.052.665.302.782.652l.166.5c.404 1.214 1.536 2.03 2.816 2.03h3.044c.445 0 .832.302.94.733l.318 1.267h-12.782c.037-.171.062-.344.062-.52 0-1.368-1.112-2.48-2.479-2.48-.563 0-1.114.194-1.553.546l-.807.647c-1.297-.86-2.74-1.48-4.253-1.829l-.757-4.542c-.176-1.056-1.081-1.822-2.151-1.822s-1.975.766-2.15 1.822l-.757 4.543c-1.513.349-2.956.969-4.253 1.829l-.807-.647c-.439-.353-.991-.547-1.554-.547-1.367 0-2.479 1.112-2.479 2.48 0 .176.025.349.062.52h-5.927l3.165-3.798c.148-.178.355-.297.584-.335l3.635-.606c1.438-.24 2.481-1.471 2.481-2.928 0-1.22-.732-2.302-1.866-2.756l-2.828-1.132c-.288-.115-.505-.363-.58-.664l-.383-1.534c-.332-1.323-1.516-2.247-2.88-2.247h-.517c-.296 0-.571-.132-.756-.363l-3.19-3.988v-3.649zm-17-5c0-1.654 1.346-3 3-3h3v24h-3c-1.125 0-2.164.374-3 1.002zm0 26c0-1.654 1.346-3 3-3h5v-11.149l1.628 2.035c.566.708 1.411 1.114 2.318 1.114h.517c.445 0 .832.302.94.733l.383 1.533c.23.922.895 1.684 1.777 2.036l2.827 1.131c.371.149.61.502.61.9 0 .475-.34.877-.809.955l-3.636.606c-.701.117-1.337.482-1.792 1.028l-4.232 5.078h-5.531c-1.654 0-3-1.346-3-3zm19.504 6.473 1.483 1.849-2.471.412c.246-.786.573-1.548.988-2.261zm-7.504 5.527c0-.088.063-.164.15-.178l10.109-1.685c-.164.594-.259 1.217-.259 1.863s.095 1.269.259 1.863l-10.108-1.685c-.088-.014-.151-.09-.151-.178zm6.516 3.266 2.471.412-1.483 1.849c-.415-.713-.742-1.475-.988-2.261zm1.264 6.629c-.29.232-.78-.001-.78-.375 0-.108.038-.216.105-.3l4.144-5.165.063.01c.448.625.996 1.173 1.621 1.621l.011.064zm3.693-.399 1.849-1.483.412 2.472c-.787-.246-1.548-.574-2.261-.989zm5.705 7.354c-.029.174-.326.174-.355 0l-1.686-10.11c.594.165 1.217.26 1.863.26s1.269-.095 1.863-.26zm3.088-6.366.412-2.472 1.849 1.483c-.713.416-1.474.744-2.261.989zm5.954-.589-5.164-4.144.011-.064c.625-.448 1.173-.996 1.621-1.621l.063-.01 4.143 5.164c.068.084.106.192.106.3 0 .374-.49.607-.78.375zm.276-4.368-1.483-1.849 2.471-.412c-.246.786-.573 1.548-.988 2.261zm7.504-5.527c0 .088-.063.164-.15.178l-10.109 1.685c.164-.594.259-1.217.259-1.863s-.095-1.269-.259-1.863l10.108 1.685c.088.014.151.09.151.178zm-8.987-3.678 1.483-1.849c.415.713.742 1.474.988 2.26z"/></svg>